<svg xmlns="http://www.w3.org/2000/svg" version="1.1" xmlns:xlink="http://www.w3.org/1999/xlink" width="400" height="400"><svg xmlns:dc="http://purl.org/dc/elements/1.1/" xmlns:cc="http://creativecommons.org/ns#" xmlns:rdf="http://www.w3.org/1999/02/22-rdf-syntax-ns#" xmlns:svg="http://www.w3.org/2000/svg" xmlns="http://www.w3.org/2000/svg" xmlns:sodipodi="http://sodipodi.sourceforge.net/DTD/sodipodi-0.dtd" xmlns:inkscape="http://www.inkscape.org/namespaces/inkscape" xml:space="preserve" width="400" height="400" version="1.1" style="clip-rule:evenodd;fill-rule:evenodd;image-rendering:optimizeQuality;shape-rendering:geometricPrecision;text-rendering:geometricPrecision" viewBox="0 0 1857.5447 1917.2891" id="SvgjsSvg1035" sodipodi:docname="gond5_back_circle2.svg" inkscape:version="0.92.3 (2405546, 2018-03-11)"><metadata id="SvgjsMetadata1034"><rdf:rdf><cc:work rdf:about=""><dc:format>image/svg+xml</dc:format><dc:type rdf:resource="http://purl.org/dc/dcmitype/StillImage"></dc:type><dc:title></dc:title></cc:work></rdf:rdf></metadata><sodipodi:namedview pagecolor="#ffffff" bordercolor="#666666" borderopacity="1" objecttolerance="10" gridtolerance="10" guidetolerance="10" inkscape:pageopacity="0" inkscape:pageshadow="2" inkscape:window-width="2442" inkscape:window-height="1489" id="SvgjsSodipodi:namedview1033" showgrid="false" fit-margin-top="0" fit-margin-left="0" fit-margin-right="0" fit-margin-bottom="0" inkscape:zoom="2.3670044" inkscape:cx="122.47383" inkscape:cy="189.4427" inkscape:window-x="118" inkscape:window-y="55" inkscape:window-maximized="1" inkscape:current-layer="svg21" units="px"></sodipodi:namedview>
 <defs id="SvgjsDefs1032">
  <style type="text/css" id="SvgjsStyle1031">
   
    .str0 {stroke:#2B2A29;stroke-width:14.9;stroke-miterlimit:22.9256}
    .str1 {stroke:#2B2A29;stroke-width:7.45;stroke-miterlimit:22.9256}
    .fil1 {fill:#D9DADA}
    .fil2 {fill:#AE4A84}
    .fil0 {fill:url(#id0)}
   
  </style>
  <linearGradient id="SvgjsLinearGradient1030" gradientUnits="userSpaceOnUse" x1="127.41" y1="493.48001" x2="1774.71" y2="1408.64">
   <stop offset="0" style="stop-opacity:1; stop-color:#B2B3B3" id="SvgjsStop1029"></stop>
   <stop offset="0.45098" style="stop-opacity:1; stop-color:#919191" id="SvgjsStop1028"></stop>
   <stop offset="1" style="stop-opacity:1; stop-color:#FEFEFE" id="SvgjsStop1027"></stop>
  </linearGradient>
 </defs>
 <circle style="opacity:1;fill:#ffffff;fill-opacity:1;fill-rule:evenodd;stroke:#000000;stroke-width:0;stroke-miterlimit:4;stroke-dasharray:none;stroke-opacity:1" id="SvgjsCircle1026" cx="928.77234" cy="958.64453" r="958.64453"></circle><g id="SvgjsG1025" transform="matrix(0.90717931,0,0,0.90719383,92.87733,95.850735)"><circle r="760.02576" cy="950.35602" cx="916.4248" id="SvgjsCircle1024" style="opacity:1;fill:#f3f3f3;fill-opacity:1;fill-rule:evenodd;stroke:none;stroke-width:16.52649117;stroke-miterlimit:22.92560005;stroke-dasharray:none;stroke-opacity:1"></circle><g transform="translate(-29.637949,-0.00214877)" id="SvgjsG1023">
  <metadata id="SvgjsMetadata1022"></metadata>
  
  
  <g id="SvgjsG1021"><path class="fil0 str0" d="m 951.06,8.84 87.31,55.72 96.51,-37.61 74.77,71.68 101.98,-18.06 59.34,84.88 103.56,2.18 41.64,94.84 101.14,22.34 22.34,101.14 94.84,41.64 2.18,103.56 84.88,59.34 -18.06,101.98 71.68,74.77 -37.61,96.51 55.72,87.31 -55.72,87.31 37.61,96.51 -71.68,74.77 18.06,101.98 -84.88,59.34 -2.18,103.56 -94.84,41.64 -22.34,101.14 -101.14,22.34 -41.64,94.84 -103.56,2.18 -59.34,84.88 -101.98,-18.06 -74.77,71.68 -96.51,-37.61 -87.31,55.72 -87.31,-55.72 -96.51,37.61 -74.77,-71.68 -101.98,18.06 -59.34,-84.88 -103.56,-2.18 -41.64,-94.84 -101.14,-22.34 -22.34,-101.14 -94.84,-41.64 -2.18,-103.56 -84.88,-59.34 18.06,-101.98 -71.68,-74.77 37.61,-96.51 L 8.84,951.06 64.56,863.75 26.95,767.24 98.63,692.47 80.57,590.49 l 84.88,-59.34 2.18,-103.56 94.84,-41.64 22.34,-101.14 101.14,-22.34 41.64,-94.84 103.56,-2.18 59.34,-84.88 101.98,18.06 74.77,-71.68 96.51,37.61 z M 705.3,1007.24 H 435.05 c -22.51,0 -41.87,7.27 -58.82,22.07 l -49.92,43.6 c -27.74,24.24 -37.65,60.72 -25.98,95.66 68.11,203.87 229.34,365.11 433.21,433.22 34.94,11.67 71.43,1.77 95.67,-25.98 l 43.6,-49.92 c 14.8,-16.95 22.07,-36.31 22.07,-58.81 v -270.26 c 0,-11.51 -4.9,-21.42 -14.04,-28.41 -25.38,-19.4 -148.11,25.72 -182.09,34.96 9.24,-33.98 54.36,-156.71 34.96,-182.09 -6.99,-9.15 -16.9,-14.04 -28.41,-14.04 z m 0,-112.36 H 435.05 c -22.51,0 -41.87,-7.27 -58.82,-22.07 l -49.92,-43.6 c -27.74,-24.24 -37.65,-60.72 -25.98,-95.66 68.11,-203.87 229.34,-365.11 433.21,-433.22 34.94,-11.67 71.43,-1.77 95.67,25.98 l 43.6,49.92 c 14.8,16.95 22.07,36.31 22.07,58.81 V 705.3 c 0,11.51 -4.9,21.42 -14.04,28.41 -25.38,19.4 -148.11,-25.72 -182.09,-34.96 9.24,33.98 54.36,156.71 34.96,182.09 -6.99,9.15 -16.9,14.04 -28.41,14.04 z m 491.52,112.36 h 270.25 c 22.51,0 41.87,7.27 58.82,22.07 l 49.92,43.6 c 27.74,24.24 37.65,60.72 25.98,95.66 -68.11,203.87 -229.34,365.11 -433.21,433.22 -34.94,11.67 -71.43,1.77 -95.67,-25.98 l -43.6,-49.92 c -14.8,-16.95 -22.07,-36.31 -22.07,-58.81 v -270.26 c 0,-11.51 4.9,-21.42 14.04,-28.41 25.38,-19.4 148.11,25.72 182.09,34.96 -9.24,-33.98 -54.36,-156.71 -34.96,-182.09 6.99,-9.15 16.9,-14.04 28.41,-14.04 z m 0,-112.36 h 270.25 c 22.51,0 41.87,-7.27 58.82,-22.07 l 49.92,-43.6 c 27.74,-24.24 37.65,-60.72 25.98,-95.66 -68.11,-203.87 -229.34,-365.11 -433.21,-433.22 -34.94,-11.67 -71.43,-1.77 -95.67,25.98 l -43.6,49.92 c -14.8,16.95 -22.07,36.31 -22.07,58.81 V 705.3 c 0,11.51 4.9,21.42 14.04,28.41 25.38,19.4 148.11,-25.72 182.09,-34.96 -9.24,33.98 -54.36,156.71 -34.96,182.09 6.99,9.15 16.9,14.04 28.41,14.04 z" id="SvgjsPath1020" inkscape:connector-curvature="0" style="fill:#760002;fill-opacity:1;stroke:#2b2a29;stroke-width:14.89999962;stroke-miterlimit:22.92560005"></path><path class="fil1 str1" d="m 941.2,1096.3 c -72.54,-4.85 -130.53,-62.84 -135.38,-135.38 -143.34,0 -286.68,0 -430.03,0 -31.87,40.16 -117.71,51.78 -221.77,-9.86 104.06,-61.64 189.9,-50.02 221.77,-9.86 143.34,0 286.68,0 430.03,0 4.85,-72.54 62.84,-130.53 135.38,-135.38 V 375.79 c -40.16,-31.87 -51.78,-117.71 9.86,-221.77 61.64,104.06 50.02,189.9 9.86,221.77 v 430.03 c 72.54,4.85 130.53,62.84 135.38,135.38 143.34,0 286.68,0 430.03,0 31.87,-40.16 117.71,-51.78 221.77,9.86 -104.06,61.64 -189.9,50.02 -221.77,9.86 -143.34,0 -286.68,0 -430.03,0 -4.85,72.54 -62.84,130.53 -135.38,135.38 0,143.34 0,286.68 0,430.03 40.16,31.87 51.78,117.71 -9.86,221.77 -61.64,-104.06 -50.02,-189.9 -9.86,-221.77 0,-143.34 0,-286.68 0,-430.03 z" id="SvgjsPath1019" inkscape:connector-curvature="0" style="fill:#d9dada;stroke:#2b2a29;stroke-width:7.44999981;stroke-miterlimit:22.92560005"></path><circle class="fil2 str0" cx="951.06" cy="951.06" r="113.05" id="SvgjsCircle1018" style="fill:#000000;fill-opacity:0.5098038;stroke:#000000;stroke-width:14.89999962;stroke-miterlimit:22.92560005;stroke-opacity:1"></circle></g>
 </g></g>
</svg><style>@media (prefers-color-scheme: light) { :root { filter: none; } }
@media (prefers-color-scheme: dark) { :root { filter: none; } }
</style></svg>